<svg width="1405" height="544" viewBox="0 0 1405 544" fill="none" xmlns="http://www.w3.org/2000/svg">
<path d="M33.5002 101C108.5 36 128 0 206 0C284 0 398.5 101 398.5 101C398.5 101 512.5 0 642.5 0C772.5 0 792 127 792 127C792 127 928.5 58.5 1137 127C1345.5 195.5 1345.5 231 1345.5 231C1345.5 231 1449.5 342 1381.5 436.5C1313.5 531 1189.5 469 1189.5 469C1189.5 469 1189 514.5 932 540.5C675 566.5 414.5 423 414.5 423C414.5 423 232 423 137.5 423C43 423 33.5002 289.5 33.5002 289.5C33.5002 289.5 -41.4998 166 33.5002 101Z" fill="url(#paint0_linear_103_119)"/>
<defs>
<linearGradient id="paint0_linear_103_119" x1="702.367" y1="-3.46759e-05" x2="2504" y2="973.5" gradientUnits="userSpaceOnUse">
<stop stop-color="white"/>
<stop offset="1" stop-color="#9E9E9E" stop-opacity="0"/>
</linearGradient>
</defs>
</svg>
