<svg width="1974" height="1154" viewBox="0 0 1974 1154" fill="none" xmlns="http://www.w3.org/2000/svg">
<path d="M391.912 606C391.912 606 327.331 131.927 534.912 22.9998C680.508 -53.4015 941.912 87.9995 941.912 87.9995L1140.41 277C1140.41 277 1346.6 172.591 1462.91 225C1566.42 271.64 1576.41 498 1576.41 498L1609.41 899C1609.41 899 1742.41 886 1830.41 941C1918.41 996 2012.5 1025.5 1957.41 1100.5C1902.32 1175.5 91.5004 1166 29.5002 1100.5C-32.4999 1035 10.5467 906.234 111.412 797.5C190.396 712.354 391.912 606 391.912 606Z" fill="url(#paint0_linear_103_117)"/>
<defs>
<linearGradient id="paint0_linear_103_117" x1="987.262" y1="0.35245" x2="2732" y2="1728" gradientUnits="userSpaceOnUse">
<stop stop-color="white"/>
<stop offset="1" stop-color="#B0B0B0" stop-opacity="0"/>
</linearGradient>
</defs>
</svg>
